<?xml version="1.0" encoding="utf-8"?>
<!-- Generator: Adobe Illustrator 24.0.0, SVG Export Plug-In . SVG Version: 6.00 Build 0)  -->
<svg version="1.1" id="Layer_1" xmlns="http://www.w3.org/2000/svg" xmlns:xlink="http://www.w3.org/1999/xlink" x="0px" y="0px"
	 viewBox="0 0 221 41" style="enable-background:new 0 0 221 41;" xml:space="preserve">
<style type="text/css">
	.st0{fill:#003DA6;}
	.st1{clip-path:url(#SVGID_2_);fill:url(#SVGID_3_);}
	.st2{clip-path:url(#SVGID_5_);fill:url(#SVGID_6_);}
	.st3{clip-path:url(#SVGID_8_);fill:url(#SVGID_9_);}
	.st4{fill:#00833E;}
	.st5{fill:#61A60E;}
	.st6{fill:#CCCACA;}
</style>
<g>
	<g>
		<g>
			<path class="st0" d="M39.7,24.5V6c0-0.4,0.3-0.7,0.7-0.7h2.9c0.4,0,0.7,0.3,0.7,0.7v18.5c0,0.4-0.3,0.7-0.7,0.7h-2.9
				C40,25.3,39.7,24.9,39.7,24.5"/>
			<path class="st0" d="M65.2,5.3h-3c-0.4,0-0.7,0.3-0.7,0.7v11.9L51.8,5.6c-0.1-0.2-0.4-0.3-0.6-0.3h-2.7c-0.4,0-0.7,0.3-0.7,0.7
				v9.2v9.3c0,0.4,0.3,0.7,0.7,0.7h3c0.4,0,0.7-0.3,0.7-0.7V12.7L61.9,25c0.1,0.2,0.4,0.3,0.6,0.3h2.7c0.4,0,0.7-0.3,0.7-0.7v-9.2V6
				C65.9,5.6,65.6,5.3,65.2,5.3"/>
			<path class="st0" d="M77.8,5.3c6.9,0,9.9,4.6,9.9,9.9s-2.9,10.1-9.9,10.1h-7.5c-0.4,0-0.7-0.3-0.7-0.7v-9.2V6
				c0-0.4,0.3-0.7,0.7-0.7H77.8z M74,21.2h3.8c4.3,0,5.5-3.2,5.5-6.1c0-2.9-1.4-5.8-5.5-5.8H74v6V21.2z"/>
			<path class="st0" d="M104.7,25.3H90.9c-0.4,0-0.7-0.3-0.7-0.7V6c0-0.4,0.3-0.7,0.7-0.7h13.3c0.4,0,0.7,0.3,0.7,0.7v2.6
				c0,0.4-0.3,0.7-0.7,0.7h-9.7v3.9h9.1c0.4,0,0.7,0.3,0.7,0.7v2.4c0,0.4-0.3,0.7-0.7,0.7h-9.1v4h10.1c0.4,0,0.7,0.3,0.7,0.7v2.6
				C105.4,24.9,105.1,25.3,104.7,25.3"/>
			<path class="st0" d="M5,15.1c0-1.3-1.1-2.4-2.4-2.4c-1.3,0-2.4,1.1-2.4,2.4c0,1.3,1.1,2.4,2.4,2.4C3.9,17.4,5,16.4,5,15.1"/>
			<g>
				<defs>
					<path id="SVGID_1_" d="M15.7,12.7c-1.7-1.7-2.6-2.5-4.9-2.5c-2.7,0-4.9,2.2-5,4.9h0c0,0,0,0,0,0c0,0,0,0,0,0h0
						c0,2.8,2.3,4.9,5,4.9c2.3,0,3.2-0.8,4.9-2.5c3.2-3.2,5.9,3.8,13.4,3.8l0,0c-3.2-0.1-5.7-2.7-5.7-6.3c0-3.5,2.4-6.1,5.7-6.2l0,0
						C21.5,9,18.9,15.9,15.7,12.7"/>
				</defs>
				<clipPath id="SVGID_2_">
					<use xlink:href="#SVGID_1_"  style="overflow:visible;"/>
				</clipPath>
				
					<linearGradient id="SVGID_3_" gradientUnits="userSpaceOnUse" x1="-180.1677" y1="437.2742" x2="-179.4303" y2="437.2742" gradientTransform="matrix(24.0024 0 0 -24.0024 4328.083 10510.9004)">
					<stop  offset="0" style="stop-color:#F60B69"/>
					<stop  offset="0.1009" style="stop-color:#E60E6E"/>
					<stop  offset="0.2993" style="stop-color:#BB177B"/>
					<stop  offset="0.5758" style="stop-color:#762591"/>
					<stop  offset="0.9167" style="stop-color:#1838AE"/>
					<stop  offset="1" style="stop-color:#003DB6"/>
				</linearGradient>
				<rect x="5.8" y="9" class="st1" width="23.3" height="12.6"/>
			</g>
			<path class="st0" d="M63.3,36.7c-0.4,0-0.8-0.1-1.1-0.2c-0.3-0.1-0.6-0.3-0.9-0.6c-0.3-0.3-0.4-0.6-0.6-0.9
				c-0.1-0.3-0.2-0.7-0.2-1.1v0c0-0.4,0.1-0.8,0.2-1.1c0.1-0.3,0.3-0.6,0.6-0.9c0.2-0.3,0.5-0.5,0.9-0.6c0.3-0.1,0.7-0.2,1.2-0.2
				c0.3,0,0.5,0,0.7,0.1s0.4,0.1,0.6,0.2c0.2,0.1,0.3,0.2,0.5,0.3c0.1,0.1,0.3,0.2,0.4,0.3l-0.8,0.9c-0.2-0.2-0.4-0.3-0.7-0.5
				c-0.2-0.1-0.5-0.2-0.7-0.2c-0.2,0-0.4,0-0.6,0.1c-0.2,0.1-0.4,0.2-0.5,0.4c-0.1,0.2-0.2,0.3-0.3,0.5c-0.1,0.2-0.1,0.4-0.1,0.7v0
				c0,0.2,0,0.5,0.1,0.7c0.1,0.2,0.2,0.4,0.3,0.5c0.1,0.2,0.3,0.3,0.5,0.4c0.2,0.1,0.4,0.1,0.6,0.1c0.3,0,0.6-0.1,0.8-0.2
				c0.2-0.1,0.4-0.3,0.6-0.5l0.8,0.8c-0.1,0.2-0.3,0.3-0.4,0.4c-0.2,0.1-0.3,0.2-0.5,0.3c-0.2,0.1-0.4,0.2-0.6,0.2
				C63.8,36.6,63.6,36.7,63.3,36.7"/>
			<path class="st0" d="M68.5,36.7c-0.4,0-0.8-0.1-1.2-0.2c-0.4-0.1-0.7-0.3-0.9-0.6c-0.3-0.3-0.5-0.5-0.6-0.9
				c-0.1-0.3-0.2-0.7-0.2-1.1v0c0-0.4,0.1-0.8,0.2-1.1c0.1-0.3,0.3-0.6,0.6-0.9c0.3-0.3,0.6-0.5,0.9-0.6c0.4-0.1,0.7-0.2,1.2-0.2
				c0.4,0,0.8,0.1,1.2,0.2c0.4,0.1,0.7,0.3,0.9,0.6c0.3,0.3,0.5,0.5,0.6,0.9c0.1,0.3,0.2,0.7,0.2,1.1v0c0,0.4-0.1,0.8-0.2,1.1
				c-0.1,0.3-0.3,0.6-0.6,0.9c-0.3,0.3-0.6,0.5-0.9,0.6C69.3,36.6,69,36.7,68.5,36.7 M68.5,35.6c0.2,0,0.5,0,0.7-0.1
				c0.2-0.1,0.4-0.2,0.5-0.4c0.1-0.2,0.3-0.3,0.3-0.5c0.1-0.2,0.1-0.4,0.1-0.7v0c0-0.2,0-0.5-0.1-0.7c-0.1-0.2-0.2-0.4-0.3-0.5
				c-0.1-0.2-0.3-0.3-0.5-0.4c-0.2-0.1-0.4-0.1-0.7-0.1c-0.2,0-0.5,0-0.7,0.1s-0.4,0.2-0.5,0.4c-0.1,0.2-0.3,0.3-0.3,0.5
				c-0.1,0.2-0.1,0.4-0.1,0.7v0c0,0.2,0,0.5,0.1,0.7c0.1,0.2,0.2,0.4,0.3,0.5c0.1,0.2,0.3,0.3,0.5,0.4
				C68.1,35.5,68.3,35.6,68.5,35.6"/>
			<path class="st0" d="M74,36.7c-0.4,0-0.8-0.1-1.2-0.2c-0.4-0.1-0.8-0.4-1.1-0.7l0.7-0.9c0.2,0.2,0.5,0.4,0.8,0.5
				c0.3,0.1,0.6,0.2,0.9,0.2c0.3,0,0.4,0,0.6-0.1c0.1-0.1,0.2-0.2,0.2-0.4v0c0-0.1,0-0.1,0-0.2c0-0.1-0.1-0.1-0.2-0.2
				c-0.1-0.1-0.2-0.1-0.3-0.2c-0.1-0.1-0.3-0.1-0.6-0.2c-0.3-0.1-0.5-0.1-0.8-0.2c-0.2-0.1-0.4-0.2-0.6-0.3
				c-0.2-0.1-0.3-0.3-0.4-0.5c-0.1-0.2-0.1-0.4-0.1-0.7v0c0-0.2,0-0.5,0.1-0.7c0.1-0.2,0.2-0.4,0.4-0.5c0.2-0.1,0.4-0.3,0.6-0.3
				c0.2-0.1,0.5-0.1,0.8-0.1c0.4,0,0.8,0.1,1.1,0.2c0.3,0.1,0.6,0.3,0.9,0.5l-0.6,0.9c-0.2-0.2-0.5-0.3-0.7-0.4
				c-0.2-0.1-0.5-0.1-0.7-0.1c-0.2,0-0.4,0-0.5,0.1c-0.1,0.1-0.2,0.2-0.2,0.3v0c0,0.1,0,0.2,0.1,0.2c0,0.1,0.1,0.1,0.2,0.2
				c0.1,0.1,0.2,0.1,0.4,0.1c0.2,0,0.3,0.1,0.6,0.2c0.3,0.1,0.5,0.2,0.7,0.2c0.2,0.1,0.4,0.2,0.5,0.3c0.1,0.1,0.3,0.3,0.3,0.4
				c0.1,0.2,0.1,0.4,0.1,0.6v0c0,0.3,0,0.5-0.1,0.7c-0.1,0.2-0.2,0.4-0.4,0.5c-0.2,0.1-0.4,0.3-0.6,0.3C74.6,36.6,74.3,36.7,74,36.7
				"/>
			<polygon class="st0" points="77.8,32.2 76.2,32.2 76.2,31.1 80.7,31.1 80.7,32.2 79,32.2 79,36.6 77.8,36.6 			"/>
			<path class="st0" d="M82.4,31.1h1.1l2.3,5.5h-1.3l-0.5-1.2h-2.3l-0.5,1.2h-1.2L82.4,31.1z M83.7,34.3l-0.7-1.8l-0.7,1.8H83.7z"/>
			<path class="st0" d="M87.5,31.1H90c0.7,0,1.2,0.2,1.6,0.6c0.3,0.3,0.5,0.7,0.5,1.2v0c0,0.4-0.1,0.8-0.3,1.1
				c-0.2,0.3-0.5,0.5-0.8,0.6l1.3,2h-1.4l-1.2-1.7h0h-0.9v1.7h-1.2V31.1z M89.9,33.8c0.3,0,0.5-0.1,0.7-0.2c0.2-0.1,0.2-0.3,0.2-0.6
				v0c0-0.3-0.1-0.5-0.2-0.6c-0.2-0.1-0.4-0.2-0.7-0.2h-1.2v1.6H89.9z"/>
			<rect x="92.9" y="31.1" class="st0" width="1.2" height="5.5"/>
			<path class="st0" d="M97.4,36.7c-0.4,0-0.8-0.1-1.1-0.2c-0.3-0.1-0.6-0.3-0.9-0.6c-0.3-0.3-0.4-0.6-0.6-0.9
				c-0.1-0.3-0.2-0.7-0.2-1.1v0c0-0.4,0.1-0.8,0.2-1.1c0.1-0.3,0.3-0.6,0.6-0.9c0.2-0.3,0.5-0.5,0.9-0.6c0.3-0.1,0.7-0.2,1.2-0.2
				c0.3,0,0.5,0,0.7,0.1c0.2,0,0.4,0.1,0.6,0.2c0.2,0.1,0.3,0.2,0.5,0.3c0.1,0.1,0.3,0.2,0.4,0.3l-0.8,0.9c-0.2-0.2-0.4-0.3-0.7-0.5
				c-0.2-0.1-0.5-0.2-0.7-0.2c-0.2,0-0.4,0-0.6,0.1c-0.2,0.1-0.4,0.2-0.5,0.4c-0.1,0.2-0.2,0.3-0.3,0.5c-0.1,0.2-0.1,0.4-0.1,0.7v0
				c0,0.2,0,0.5,0.1,0.7c0.1,0.2,0.2,0.4,0.3,0.5c0.1,0.2,0.3,0.3,0.5,0.4c0.2,0.1,0.4,0.1,0.6,0.1c0.3,0,0.6-0.1,0.8-0.2
				c0.2-0.1,0.4-0.3,0.6-0.5l0.8,0.8c-0.1,0.2-0.3,0.3-0.4,0.4c-0.2,0.1-0.3,0.2-0.5,0.3c-0.2,0.1-0.4,0.2-0.6,0.2
				C97.9,36.6,97.7,36.7,97.4,36.7"/>
			<path class="st0" d="M102,31.1h1.1l2.3,5.5h-1.3l-0.5-1.2h-2.3l-0.5,1.2h-1.2L102,31.1z M103.2,34.3l-0.7-1.8l-0.7,1.8H103.2z"/>
			<g>
				<defs>
					<path id="SVGID_4_" d="M18.6,15.3c0,5.9,4.6,10.6,10.5,10.6c3.4,0,5.9-1.1,8.3-3.6c0.2-0.2,0.2-0.6,0-0.9l-2.2-2.2
						c-0.2-0.2-0.6-0.2-0.9,0c-1.6,1.4-3,2.3-5.1,2.3c-3.3,0-5.8-2.7-5.8-6.3c0-3.5,2.5-6.2,5.8-6.2c1.8,0,3.3,0.7,5,2.2
						c0.1,0.1,0.3,0.2,0.5,0.2c0.2,0,0.3-0.1,0.4-0.2l2.2-2.5c0.2-0.2,0.2-0.6,0-0.8c-1.6-1.6-3.9-3.2-8-3.2
						C23.1,4.7,18.6,9.2,18.6,15.3"/>
				</defs>
				<clipPath id="SVGID_5_">
					<use xlink:href="#SVGID_4_"  style="overflow:visible;"/>
				</clipPath>
				
					<linearGradient id="SVGID_6_" gradientUnits="userSpaceOnUse" x1="-180.7805" y1="437.5132" x2="-180.0431" y2="437.5132" gradientTransform="matrix(25.6484 0 0 -25.6484 4657.5347 11236.7939)">
					<stop  offset="0" style="stop-color:#0093CB"/>
					<stop  offset="0.1129" style="stop-color:#0093CB"/>
					<stop  offset="0.1181" style="stop-color:#0092CB"/>
					<stop  offset="0.317" style="stop-color:#006DC2"/>
					<stop  offset="0.5023" style="stop-color:#0053BB"/>
					<stop  offset="0.6673" style="stop-color:#0043B7"/>
					<stop  offset="0.7953" style="stop-color:#003DB6"/>
					<stop  offset="1" style="stop-color:#003DB6"/>
				</linearGradient>
				<rect x="18.6" y="4.7" class="st2" width="19" height="21.2"/>
			</g>
			<path class="st0" d="M39.7,24.5V6c0-0.4,0.3-0.7,0.7-0.7h2.9c0.4,0,0.7,0.3,0.7,0.7v18.5c0,0.4-0.3,0.7-0.7,0.7h-2.9
				C40,25.3,39.7,24.9,39.7,24.5"/>
			<path class="st0" d="M65.2,5.3h-3c-0.4,0-0.7,0.3-0.7,0.7v11.9L51.8,5.6c-0.1-0.2-0.4-0.3-0.6-0.3h-2.7c-0.4,0-0.7,0.3-0.7,0.7
				v9.2v9.3c0,0.4,0.3,0.7,0.7,0.7h3c0.4,0,0.7-0.3,0.7-0.7V12.7L61.9,25c0.1,0.2,0.4,0.3,0.6,0.3h2.7c0.4,0,0.7-0.3,0.7-0.7v-9.2V6
				C65.9,5.6,65.6,5.3,65.2,5.3"/>
			<path class="st0" d="M77.8,5.3c6.9,0,9.9,4.6,9.9,9.9s-2.9,10.1-9.9,10.1h-7.5c-0.4,0-0.7-0.3-0.7-0.7v-9.2V6
				c0-0.4,0.3-0.7,0.7-0.7H77.8z M74,21.2h3.8c4.3,0,5.5-3.2,5.5-6.1c0-2.9-1.4-5.8-5.5-5.8H74v6V21.2z"/>
			<path class="st0" d="M104.7,25.3H90.9c-0.4,0-0.7-0.3-0.7-0.7V6c0-0.4,0.3-0.7,0.7-0.7h13.3c0.4,0,0.7,0.3,0.7,0.7v2.6
				c0,0.4-0.3,0.7-0.7,0.7h-9.7v3.9h9.1c0.4,0,0.7,0.3,0.7,0.7v2.4c0,0.4-0.3,0.7-0.7,0.7h-9.1v4h10.1c0.4,0,0.7,0.3,0.7,0.7v2.6
				C105.4,24.9,105.1,25.3,104.7,25.3"/>
			<path class="st0" d="M5,15.1c0-1.3-1.1-2.4-2.4-2.4c-1.3,0-2.4,1.1-2.4,2.4c0,1.3,1.1,2.4,2.4,2.4C3.9,17.4,5,16.4,5,15.1"/>
			<g>
				<defs>
					<path id="SVGID_7_" d="M15.7,12.7c-1.7-1.7-2.6-2.5-4.9-2.5c-2.7,0-4.9,2.2-5,4.9h0c0,0,0,0,0,0c0,0,0,0,0,0h0
						c0,2.8,2.3,4.9,5,4.9c2.3,0,3.2-0.8,4.9-2.5c3.1-3.1,5.8,3.7,13.2,3.8c0,0,0.4,0,0.4,0l-0.2,0c-3.2-0.1-5.7-2.7-5.7-6.3
						c0-3.5,2.4-6.1,5.7-6.2l0.4,0c0,0-0.3,0-0.5,0C21.5,9,18.9,15.9,15.7,12.7"/>
				</defs>
				<clipPath id="SVGID_8_">
					<use xlink:href="#SVGID_7_"  style="overflow:visible;"/>
				</clipPath>
				
					<linearGradient id="SVGID_9_" gradientUnits="userSpaceOnUse" x1="-180.2643" y1="437.3362" x2="-179.527" y2="437.3362" gradientTransform="matrix(24.409 0 0 -24.409 4403.6602 10690.208)">
					<stop  offset="0" style="stop-color:#F60B69"/>
					<stop  offset="0.1009" style="stop-color:#E60E6E"/>
					<stop  offset="0.2993" style="stop-color:#BB177B"/>
					<stop  offset="0.5758" style="stop-color:#762591"/>
					<stop  offset="0.9167" style="stop-color:#1838AE"/>
					<stop  offset="1" style="stop-color:#003DB6"/>
				</linearGradient>
				<rect x="5.8" y="9" class="st3" width="23.7" height="12.6"/>
			</g>
			<g>
				<path class="st0" d="M14.9,31.1h0.6v5.6h-0.6V31.1z"/>
				<path class="st0" d="M16.3,31.1h0.6l3.5,4.5v-4.5h0.6v5.6h-0.5L17,32.1v4.6h-0.6V31.1z"/>
				<path class="st0" d="M21.4,31.1h0.7l2,4.8l2-4.8h0.7l-2.4,5.6h-0.6L21.4,31.1z"/>
				<path class="st0" d="M27.1,31.1h0.6v5.6h-0.6V31.1z"/>
				<path class="st0" d="M28.5,31.1h4v0.6h-3.4v1.9h3v0.6h-3v1.9h3.4v0.6h-4.1V31.1z"/>
				<path class="st0" d="M33,31.1h2.4c0.7,0,1.2,0.2,1.6,0.6c0.3,0.3,0.4,0.7,0.4,1.1v0c0,0.9-0.6,1.5-1.5,1.6l1.7,2.3h-0.8
					l-1.6-2.2h0h-1.6v2.2H33V31.1z M35.4,33.9c0.8,0,1.4-0.4,1.4-1.1v0c0-0.7-0.5-1.1-1.4-1.1h-1.7v2.3H35.4z"/>
				<path class="st0" d="M39.4,31.7h-1.9v-0.6h4.4v0.6H40v5h-0.6V31.7z"/>
				<path class="st0" d="M43.6,31.1h0.6l2.5,5.6h-0.7l-0.7-1.5h-3l-0.7,1.5h-0.6L43.6,31.1z M45.2,34.6l-1.3-2.8l-1.3,2.8H45.2z"/>
				<path class="st0" d="M48.6,31.1h4v0.6h-3.4v1.9h3v0.6h-3v1.9h3.4v0.6h-4.1V31.1z"/>
				<path class="st0" d="M53.2,31.1h0.6l3.5,4.5v-4.5h0.6v5.6h-0.5l-3.6-4.6v4.6h-0.6V31.1z"/>
			</g>
		</g>
	</g>
	<g>
		<path class="st4" d="M175.9,26.3c-0.1-0.1-0.3-0.1-0.4,0c-0.7,0.7-1.3,1.1-2.3,1.1c-1.5,0-2.6-1.2-2.6-2.9c0-1.6,1.1-2.8,2.6-2.8
			c0.8,0,1.5,0.3,2.3,1c0.1,0.1,0.1,0.1,0.2,0.1c0.1,0,0.1,0,0.2-0.1l1-1.1c0.1-0.1,0.1-0.3,0-0.4c-0.8-0.7-1.8-1.5-3.6-1.5
			c-2.8,0-4.8,2.1-4.8,4.9c0,2.7,2.1,4.8,4.8,4.8c1.5,0,2.7-0.5,3.8-1.6c0.1-0.1,0.1-0.3,0-0.4L175.9,26.3z"/>
		<path class="st4" d="M182.2,27.4c-1.5,0-2.7-1.2-2.7-2.9c0-1.6,1.2-2.8,2.7-2.8c1.5,0,2.7,1.2,2.7,2.9
			C184.9,26.2,183.8,27.4,182.2,27.4 M182.2,19.7c-2.7,0-4.9,2.1-4.9,4.9c0,2.7,2.1,4.8,4.9,4.8c2.7,0,4.9-2.1,4.9-4.9
			C187.1,21.8,185,19.7,182.2,19.7"/>
		<path class="st4" d="M192.1,23.5c-1.8-0.4-1.9-0.7-1.9-1.1c0-0.5,0.5-0.8,1.2-0.8c0.7,0,1.5,0.3,2.2,0.9c0.1,0,0.1,0.1,0.2,0.1
			c0.1,0,0.1-0.1,0.2-0.1l0.8-1.2c0.1-0.1,0.1-0.3-0.1-0.4c-1-0.8-2.1-1.2-3.4-1.2c-1.9,0-3.3,1.2-3.3,2.9c0,1.8,1.2,2.4,3.2,2.9
			c1.6,0.4,1.8,0.7,1.8,1.1c0,0.6-0.7,0.8-1.3,0.8c-1,0-1.7-0.3-2.6-1.1c-0.1,0-0.1-0.1-0.2-0.1c-0.1,0-0.1,0-0.2,0.1l-0.9,1.1
			c-0.1,0.1-0.1,0.3,0,0.4c1.1,1,2.4,1.5,3.9,1.5c2.1,0,3.4-1.1,3.4-2.9C195.2,24.5,193.7,23.9,192.1,23.5"/>
		<path class="st4" d="M203.5,21.6v-1.4c0-0.2-0.1-0.3-0.3-0.3H196c-0.2,0-0.3,0.1-0.3,0.3v1.4c0,0.2,0.1,0.3,0.3,0.3h2.5v7.1
			c0,0.2,0.1,0.3,0.3,0.3h1.6c0.2,0,0.3-0.1,0.3-0.3v-7.1h2.5C203.3,21.8,203.5,21.7,203.5,21.6"/>
		<path class="st4" d="M208.5,25.2h-2.2l1.1-2.5L208.5,25.2z M208.4,19.9c0-0.1-0.1-0.2-0.3-0.2h-1.4c-0.1,0-0.2,0.1-0.3,0.2
			l-3.9,8.9c0,0.1,0,0.2,0,0.3c0.1,0.1,0.1,0.1,0.2,0.1h1.6c0.1,0,0.2-0.1,0.3-0.2l0.8-2h3.8l0.8,2c0,0.1,0.1,0.2,0.3,0.2h1.6
			c0.1,0,0.2,0,0.2-0.1c0.1-0.1,0.1-0.2,0-0.3L208.4,19.9z"/>
		<path class="st4" d="M171.3,33.3h2c0.7,0,1.5,0.2,1.5,1.2c0,0.7-0.6,1.2-1.5,1.2h-2V33.3z M175,37.2c1.2-0.5,1.9-1.5,1.9-2.8
			c0-0.8-0.3-1.6-0.8-2.1c-0.6-0.6-1.6-1-2.7-1h-3.9c-0.2,0-0.3,0.1-0.3,0.3v8.8c0,0.2,0.1,0.3,0.3,0.3h1.5c0.2,0,0.3-0.1,0.3-0.3
			v-2.8h1.5l2.1,3c0.1,0.1,0.1,0.1,0.2,0.1h1.8c0.1,0,0.2-0.1,0.2-0.2c0-0.1,0-0.2,0-0.3L175,37.2z"/>
		<path class="st4" d="M180.4,31.3h-1.5c-0.2,0-0.3,0.1-0.3,0.3v8.8c0,0.2,0.1,0.3,0.3,0.3h1.5c0.2,0,0.3-0.1,0.3-0.3v-8.8
			C180.6,31.5,180.5,31.3,180.4,31.3"/>
		<path class="st4" d="M189.6,37.8c-0.1-0.1-0.3-0.1-0.4,0c-0.7,0.7-1.3,1.1-2.3,1.1c-1.5,0-2.6-1.2-2.6-2.9c0-1.6,1.1-2.8,2.6-2.8
			c0.8,0,1.5,0.3,2.3,1c0.1,0.1,0.1,0.1,0.2,0.1c0.1,0,0.1,0,0.2-0.1l1-1.1c0.1-0.1,0.1-0.3,0-0.4c-0.8-0.7-1.8-1.4-3.6-1.4
			c-2.8,0-4.8,2.1-4.8,4.9c0,2.7,2.1,4.8,4.8,4.8c1.5,0,2.7-0.5,3.8-1.6c0.1-0.1,0.1-0.3,0-0.4L189.6,37.8z"/>
		<path class="st4" d="M197,36.7h-2.2l1.1-2.5L197,36.7z M200.8,40.3l-3.9-8.9c0-0.1-0.1-0.2-0.3-0.2h-1.4c-0.1,0-0.2,0.1-0.3,0.2
			l-3.9,8.9c0,0.1,0,0.2,0,0.3c0.1,0.1,0.1,0.1,0.2,0.1h1.6c0.1,0,0.2-0.1,0.3-0.2l0.8-2h3.8l0.8,2c0,0.1,0.1,0.2,0.3,0.2h1.6
			c0.1,0,0.2,0,0.2-0.1C200.8,40.5,200.8,40.4,200.8,40.3"/>
		<path class="st5" d="M219.5,13.4c0.1,0,0.1,0,0.2,0c0,0,0.1-0.1,0.1-0.1c0-0.1,0-0.1-0.1-0.1c0,0-0.1,0-0.2,0l-0.3,0l0,0.3
			L219.5,13.4z M219.8,13.9l-0.3-0.4l-0.2,0l0,0.4l-0.2,0l0-1.1l0.5,0c0.1,0,0.1,0,0.2,0c0.1,0,0.1,0,0.1,0.1c0,0,0,0.1,0.1,0.1
			c0,0,0,0.1,0,0.1c0,0.1,0,0.2-0.1,0.2c0,0-0.1,0.1-0.2,0.1L220,14L219.8,13.9z M219.5,12.5c-0.1,0-0.2,0-0.3,0.1
			c-0.1,0-0.2,0.1-0.3,0.2c-0.1,0.1-0.1,0.2-0.2,0.3c0,0.1-0.1,0.2-0.1,0.3c0,0.1,0,0.2,0.1,0.4c0,0.1,0.1,0.2,0.2,0.3
			c0.1,0.1,0.2,0.1,0.3,0.2c0.1,0,0.2,0.1,0.4,0.1c0.1,0,0.3,0,0.4-0.1c0.1,0,0.2-0.1,0.3-0.2c0.1-0.1,0.1-0.2,0.2-0.3
			c0-0.1,0.1-0.2,0.1-0.4c0-0.1,0-0.2-0.1-0.4c0-0.1-0.1-0.2-0.2-0.3c-0.1-0.1-0.2-0.1-0.3-0.2C219.7,12.6,219.6,12.5,219.5,12.5
			L219.5,12.5L219.5,12.5z M219.4,14.5c-0.1,0-0.3,0-0.4-0.1c-0.1-0.1-0.2-0.1-0.3-0.2c-0.1-0.1-0.2-0.2-0.2-0.3
			c-0.1-0.1-0.1-0.3-0.1-0.4c0-0.1,0-0.3,0.1-0.4c0.1-0.1,0.1-0.2,0.2-0.3c0.1-0.1,0.2-0.2,0.3-0.2c0.1-0.1,0.3-0.1,0.4-0.1
			c0.2,0,0.3,0,0.4,0.1c0.1,0.1,0.2,0.1,0.3,0.2c0.1,0.1,0.2,0.2,0.2,0.3c0.1,0.1,0.1,0.3,0.1,0.4c0,0.1,0,0.3-0.1,0.4
			c-0.1,0.1-0.1,0.2-0.2,0.3c-0.1,0.1-0.2,0.2-0.3,0.2C219.7,14.4,219.6,14.5,219.4,14.5L219.4,14.5z"/>
		<path class="st5" d="M219.2,13.4l0-0.3l0.3,0c0.1,0,0.1,0,0.2,0c0,0,0.1,0.1,0.1,0.1c0,0.1,0,0.1-0.1,0.1c0,0-0.1,0-0.2,0v0l0,0
			L219.2,13.4z M219,12.9L219,12.9l0,1.1l0,0h0l0.2,0l0,0l0,0l0-0.4l0.2,0l0.3,0.4l0,0h0l0.2,0l0,0l0,0l-0.3-0.4
			c0.1,0,0.1-0.1,0.2-0.1c0.1-0.1,0.1-0.1,0.1-0.2c0-0.1,0-0.1,0-0.1c0,0,0-0.1-0.1-0.1c0,0-0.1-0.1-0.1-0.1c-0.1,0-0.1,0-0.2,0
			L219,12.9L219,12.9z M219.5,14.3L219.5,14.3c-0.1,0-0.3,0-0.4-0.1c-0.1,0-0.2-0.1-0.3-0.2c-0.1-0.1-0.1-0.2-0.2-0.3
			c0-0.1-0.1-0.2-0.1-0.3c0-0.1,0-0.2,0.1-0.4c0-0.1,0.1-0.2,0.2-0.3c0.1-0.1,0.2-0.1,0.3-0.2c0.1,0,0.2-0.1,0.3-0.1h0
			c0.1,0,0.2,0,0.4,0.1c0.1,0,0.2,0.1,0.3,0.2c0.1,0.1,0.1,0.2,0.2,0.3c0,0.1,0.1,0.2,0.1,0.3c0,0.1,0,0.2-0.1,0.4
			c0,0.1-0.1,0.2-0.2,0.3c-0.1,0.1-0.2,0.1-0.3,0.2C219.7,14.3,219.6,14.3,219.5,14.3 M219.5,12.4c-0.1,0-0.3,0-0.4,0.1
			c-0.1,0.1-0.2,0.1-0.3,0.2c-0.1,0.1-0.2,0.2-0.2,0.3c-0.1,0.1-0.1,0.3-0.1,0.4c0,0.1,0,0.3,0.1,0.4c0.1,0.1,0.1,0.2,0.2,0.3
			c0.1,0.1,0.2,0.2,0.3,0.2c0.1,0.1,0.3,0.1,0.4,0.1h0c0.1,0,0.3,0,0.4-0.1c0.1-0.1,0.2-0.1,0.3-0.2c0.1-0.1,0.2-0.2,0.2-0.3
			c0.1-0.1,0.1-0.3,0.1-0.4c0-0.1,0-0.3-0.1-0.4c-0.1-0.1-0.1-0.2-0.2-0.3c-0.1-0.1-0.2-0.2-0.3-0.2
			C219.8,12.4,219.6,12.4,219.5,12.4L219.5,12.4z M219.5,13.4c0.1,0,0.1,0,0.2,0c0,0,0.1-0.1,0.1-0.1v0c0-0.1,0-0.1-0.1-0.1
			c0,0-0.1-0.1-0.2-0.1l-0.3,0l0,0.4L219.5,13.4L219.5,13.4 M219.1,12.9l0.5,0c0.1,0,0.1,0,0.2,0c0.1,0,0.1,0,0.1,0.1
			c0,0,0,0.1,0.1,0.1c0,0,0,0.1,0,0.1v0c0,0.1,0,0.2-0.1,0.2c-0.1,0.1-0.1,0.1-0.2,0.1l0.3,0.4l-0.2,0l-0.3-0.4h0l-0.3,0l0,0.4
			l-0.2,0L219.1,12.9z M219.5,14.4c0.1,0,0.2,0,0.4-0.1c0.1,0,0.2-0.1,0.3-0.2c0.1-0.1,0.1-0.2,0.2-0.3c0-0.1,0.1-0.2,0.1-0.4v0
			c0-0.1,0-0.2-0.1-0.4c0-0.1-0.1-0.2-0.2-0.3c-0.1-0.1-0.2-0.1-0.3-0.2c-0.1,0-0.2-0.1-0.4-0.1c0,0,0,0,0,0c-0.1,0-0.2,0-0.4,0.1
			c-0.1,0-0.2,0.1-0.3,0.2c-0.1,0.1-0.1,0.2-0.2,0.3c0,0.1-0.1,0.2-0.1,0.4v0c0,0.1,0,0.2,0.1,0.4c0,0.1,0.1,0.2,0.2,0.3
			c0.1,0.1,0.2,0.1,0.3,0.2C219.2,14.3,219.3,14.4,219.5,14.4L219.5,14.4 M219.5,12.4L219.5,12.4c0.2,0,0.3,0,0.4,0.1
			c0.1,0.1,0.2,0.1,0.3,0.2c0.1,0.1,0.2,0.2,0.2,0.3c0.1,0.1,0.1,0.3,0.1,0.4v0c0,0.1,0,0.3-0.1,0.4c-0.1,0.1-0.1,0.2-0.2,0.3
			c-0.1,0.1-0.2,0.2-0.3,0.2c-0.1,0.1-0.3,0.1-0.4,0.1h0c-0.1,0-0.3,0-0.4-0.1c-0.1-0.1-0.2-0.1-0.3-0.2c-0.1-0.1-0.2-0.2-0.2-0.3
			c-0.1-0.1-0.1-0.3-0.1-0.4v0c0-0.1,0-0.3,0.1-0.4c0.1-0.1,0.1-0.2,0.2-0.3c0.1-0.1,0.2-0.2,0.3-0.2
			C219.2,12.4,219.3,12.4,219.5,12.4"/>
		<path class="st5" d="M168.6,11.3c0.3-0.3,0.9-0.9,0.9-0.9c0.3-0.3,0.3-0.3,0.8-0.6c0.1,0,0.1-0.1,0.2-0.1c0.1,0,0.1,0,0.2-0.1
			c0,0,0.1,0,0.2-0.1c0.1,0,0.1-0.1,0.4-0.2c0.2-0.1,0.5-0.3,0.7-0.2c0.1,0,0.2,0.2,0,0.5c-0.1,0.2-0.3,0.5-0.5,0.7
			c-0.1,0.1-0.3,0.3-0.4,0.4c-0.1,0.1-0.4,0.2-0.7,0.4c-0.2,0.1-0.5,0.2-0.7,0.3c-0.3,0.1-0.4,0.2-0.6,0.2c-0.1,0.1-0.4,0.2-0.5,0.2
			C168.5,11.6,168.2,11.7,168.6,11.3 M181.5,15.5c0,0-0.2-0.2-0.2-0.2c-0.1,0-0.1-0.1-0.1-0.1c0,0-0.1,0-0.2-0.1c-0.1,0,0.1,0,0.1,0
			c-0.2-0.1-0.4-0.6-0.6-1.3c0,0-0.1-1-0.1-1.1c-0.1-0.5,0-0.9,0.1-1.3c0.1-0.2,0.1-0.6,0.1-0.8c0-0.3,0.1-0.2,0.1-0.8
			c0,0,0-0.1,0.1-0.2c0-0.2,0-0.2-0.1-0.3c0-0.1-0.2-0.2-0.2-0.3c-0.1-0.1-0.8-0.1-0.8-0.1c0,0-0.1,0-0.1,0c-0.1,0-0.2,0-0.2,0
			c-0.1,0.1-0.2,0.1-0.3,0.1c-0.1,0.1-0.3,0.3-0.4,0.4c-0.4,0.5,0.1,0-0.1,0.2c-0.1,0.1-0.4,0.4-0.6,0.7c-0.1,0.1-0.1,0.2-0.2,0.3
			c-0.1,0.1-0.2,0.3-0.3,0.4c-0.3,0.3-0.6,0.5-0.6,0.5c-0.2,0.3-0.2,0.2-0.4,0.6c-0.1,0.1-0.2,0.2-0.2,0.3c0,0.1-0.3,0.3-0.5,0.6
			c0,0,0,0.1-0.1,0.1c0,0-0.1,0.1-0.1,0.1c0-0.1,0,0,0-0.1c0-0.2,0.1-0.4,0.1-0.5c0,0,0-0.2,0-0.2c0.2-0.4,0-0.4,0.1-0.8
			c-0.1,0.1,0-0.2,0-0.2c0.1-0.2,0.1-0.4,0.1-0.6c0,0,0.1-0.3,0.1-0.8c0-0.2-0.1-0.1-0.1-0.1c0,0,0,0,0,0c0,0,0,0,0,0v0
			c0,0-0.1-0.2-0.5-0.1c-0.1,0-0.3,0-0.6,0.1c-0.1,0-0.1,0-0.3,0.1c-0.1,0-0.2,0.2-0.3,0.3c0,0-0.1,0.1-0.1,0.1c0,0-0.1,0.1-0.1,0.1
			c0,0-0.1,0.2-0.2,0.3c-0.1,0.1-0.2,0.2-0.2,0.3c-0.2,0.2-0.2,0.2-0.3,0.4c-0.1,0.1-0.1,0.2-0.1,0.2c0,0.1-0.1,0.1-0.1,0.2
			c-0.2,0.2-0.2,0.2-0.3,0.3c0,0.2-0.7,0.6-0.8,0.8c0-0.1-0.6,0.7-0.9,0.7c0,0-1.2,0.9-1.8,1c-0.7,0.3-1.2,0-1.4-0.1
			c-0.1-0.1-0.2-0.1-0.3-0.2c0,0-0.1-0.1-0.1-0.1c-0.5-0.5-0.3-0.9-0.1-1.3c0-0.1,0-0.1,0-0.1c0.1,0,0.3-0.1,0.5-0.2
			c0.1,0,0.2,0,0.3,0c0,0,0.1,0,0.2-0.1c0.2,0,0.5-0.2,0.5-0.2c0.1,0,0.1,0,0.2,0c0.2-0.1,0.4-0.2,0.4-0.2c0.2-0.1,0.4-0.1,0.5-0.2
			c0.1,0,0.1-0.1,0.2-0.1c0.1-0.1,0.3-0.1,0.4-0.2c0,0,0.1-0.1,0.2-0.1c0.1,0,0.1,0,0.2-0.1c0.1,0,0.2-0.1,0.3-0.1
			c0.2-0.2,0.3-0.3,0.5-0.5c0.3-0.3,0.5-0.5,0.7-0.9c0.1-0.2,0.2-0.4,0.3-0.8c0-0.2,0.1-0.4-0.3-0.8c-0.3-0.3-0.8-0.3-0.9-0.3
			c-1.4,0.2-1.7,0.6-2.3,0.9c-0.5,0.3-1,0.7-1.6,1.4c-0.6,0.6-1.2,1.4-1.5,2.3c0,0.4-0.3,1.2,0.1,1.8c0,0.1,0,0.2,0,0.2
			c0.1,0.2,0.3,0.4,0.5,0.6c0,0,0,0,0,0c0.3,0.2,0.8,0.4,1,0.4c0,0,0,0,0,0c0.2,0.1,0.3,0.1,0.5,0.1c0,0-0.1,0-0.1,0
			c0.7,0,1.3-0.1,1.8-0.3c0.1,0,0.1-0.1,0.2-0.1c1-0.3,0.9-0.6,1.7-1c0,0,0.1-0.1,0.1-0.1c0.4-0.6,0.9-0.7,1.3-1.1c0,0,0,0,0,0
			c0,0,0.2-0.1,0.3-0.3c0.1-0.1,0.1-0.2,0.2-0.3c0,0,0,0,0,0c0.1-0.1,0.2-0.2,0.3-0.3c0,0,0.1-0.2,0.1-0.2c0.1-0.3,0.2-0.3,0.2-0.4
			c0,0.1,0,0.3-0.1,0.6c0,0.3,0,0.4,0,0.7c0,0.1-0.1,0.5,0,0.6c0,0.1,0,0.2,0,0.2c0,0,0.1,0.2,0.1,0.2c0,0.1,0.1,0.1,0.1,0.1
			c0,0,0.1,0.1,0.1,0.1c0.1,0,0.1,0.1,0.2,0.1c0.1,0,0.1,0.1,0.2,0.1c0,0,0.2,0,0.2,0c0.1,0,0.1,0,0.2,0c0,0,0,0,0.1,0
			c0,0,0,0,0.1,0c0,0,0.1,0,0.2-0.1c0,0,0.1-0.1,0.1-0.1c0,0,0.1-0.1,0.1-0.1c0,0,0.1,0,0.1-0.1c0-0.1,0.1-0.1,0.1-0.1
			c0,0,0.1-0.1,0.1-0.1c0,0,0.2-0.3,0.3-0.3c0.1-0.2,0.5-0.5,0.5-0.6c0.1-0.1,0.9-1.2,1-1.3c0.2-0.2,0.3-0.3,0.4-0.5
			c0.3-0.3,0.2-0.2,0.4-0.5c0,0,0.1-0.3,0.2-0.4c0,0,0,0.1,0,0.1c-0.2,0.6-0.2,0.7-0.2,1.4c0,0,0.1,0.5,0,0.6c0,0,0,0.4,0,0.4
			c0,0.3,0,0.2,0.2,0.9c0.1,0.6,0.3,1.1,1,1.7c0.1,0.1,0.3,0.3,0.7,0.3c0.2,0,0.3-0.1,0.3-0.1c0,0-0.1,0-0.1,0c0.1,0,0.1,0,0.1-0.1
			c0,0,0-0.1,0-0.1c0,0,0.1,0,0.1-0.1c0,0,0-0.1,0-0.1c0,0,0,0,0,0C181.7,15.6,181.5,15.5,181.5,15.5"/>
		<path class="st5" d="M186.6,14.5c0.4-0.1,1.8-1.3,2-1.6c0.1-0.1,0.1,0,0.2-0.1c0,0,0.1-0.2,0.1-0.2l0.3-0.3c0,0,0,0,0.1-0.1l0-0.1
			c0,0,0.1-0.1,0.1-0.1c0,0.1-0.1,0.2-0.1,0.3c0,0.1,0,0.2,0,0.2c0,0.1,0,0.3,0,0.3c0,0,0,0.6,0.1,0.8c0,0.1,0.1,0.3,0.1,0.3
			c0,0.1,0.1,0.4,0.1,0.4c0,0,0.2,0.4,0.2,0.5c0.1,0.1,0.2,0.3,0.3,0.4c0.1,0.1,0.1,0.1,0.2,0.2c0.1,0,0.1,0.1,0.2,0.1
			c0.1,0,0.3-0.1,0.3,0c0.1,0,0.1-0.1,0.2-0.1c0-0.1,0.1-0.1,0.1-0.2c0,0-0.2-0.5-0.2-0.6c-0.1-0.1-0.1-0.2-0.2-0.3
			c0-0.1-0.1-0.2-0.1-0.2c0-0.1-0.1-0.2-0.1-0.3c0-0.1-0.1-0.3-0.1-0.4c0,0-0.1-0.3,0-0.6c0-0.1,0-0.2,0-0.3c0-0.4,0.1-1.1,0.2-1.6
			c0-0.1,0.1-0.2,0.1-0.3c0,0,0,0,0,0c0.1-0.2,0,0,0-0.2c0-0.1,0-0.1,0.1-0.4c0-0.1,0.1-0.3,0.1-0.3c0,0,0,0,0.1-0.2
			c0-0.2-0.7-0.3-0.9-0.1c0,0-0.1,0.1-0.1,0.1c-0.1,0.1-0.1,0.1-0.2,0.2c-0.1,0.1-0.1,0.1-0.1,0.2c0,0.1-0.1,0.1-0.1,0.2
			c-0.2,0.2,0,0.2-0.1,0.3c-0.1,0.2-0.2,0.3-0.3,0.5c0,0,0,0.1-0.1,0.1l-0.3,0.4c-0.1,0-0.5,0.5-0.6,0.6c0,0-0.3,0.3-0.3,0.3
			c-0.1,0.1-0.3,0.3-0.4,0.3l-0.8,0.6c-0.3,0.2-0.3,0.3-0.6,0.4l-0.3,0.2c-0.4,0.3-0.8,0.4-1.2,0.4c-0.2,0-0.4-0.1-0.5-0.3
			c0-0.1-0.2-0.3-0.2-0.3c-0.1-0.2-0.1,0-0.1-0.2c-0.2-0.2,0.4-1.7,0.7-2c0.1-0.2,0.3-0.4,0.4-0.5l0,0c0.1-0.2,1-1,1.2-1.2l0,0
			c0.1-0.1,0.2-0.1,0.3-0.2c0,0,0.1-0.1,0.2-0.2l0,0c0.1-0.1,0.3-0.2,0.4-0.3l0,0c0.1-0.1,0.2-0.2,0.3-0.2c0,0,0.1,0,0.1,0
			c0,0,0,0,0,0.1c0.1,0,0,0.1,0,0.1c-0.1,0.1-0.1,0.3-0.1,0.3s0.1,0.1,0.1,0.2c0.1,0.1,0.2,0.2,0.3,0.1c0.1,0,0.1,0,0.2,0
			c0,0,0.2,0,0.2,0c0.1-0.1,0.3-0.4,0.3-0.4c0.1-0.1,0-0.2,0-0.2c0,0,0.1,0,0.1-0.2c0-0.2,0,0,0-0.3c0.1-0.2-0.3-0.6-0.4-0.7
			c-0.2-0.1-0.4-0.1-0.5-0.1c-0.1,0-0.1,0-0.2,0c-0.3,0-0.5,0.1-0.7,0.1c-0.4,0.1-0.7,0.3-1,0.5c0,0-0.4,0.2-0.5,0.4
			c-0.1,0-0.1,0-0.1,0c0,0-0.8,0.8-0.8,0.8l0,0c-0.2,0.2-0.1,0-0.2,0.2c0,0.1-0.2,0.3-0.3,0.4c0,0.1-0.1,0.1-0.1,0.1c0,0,0,0,0,0
			l-0.1,0.1c0,0-0.1,0,0,0c-0.3,0.2-1.2,2-1.1,2.7c0,0.1,0,0.3,0,0.4l0,0l0,0.1c0.2,0.6,0,0.1,0.3,0.7c0.2,0.2,0.3,0.3,0.5,0.4
			c0,0-0.1-0.1,0,0c0,0,0.2,0.1,0.2,0.1c0.1,0,0.3,0.2,0.2,0.1c0,0,0.2,0.1,0.1,0.1c0.1,0,0.1,0.1,0.2,0.1c0,0,0.3,0.1,0.4,0.1
			c0.1,0,0.1,0,0.1,0c0.1,0,0.2,0,0.3,0c0,0,0.4,0,0.4,0C185.8,15,186.6,14.5,186.6,14.5"/>
		<path class="st5" d="M192.1,8.5c0-0.2,0.1-0.2,0.1-0.4c0-0.2-0.3-0.2-0.3-0.4c-0.1,0-0.1-0.1-0.2-0.2c-0.1,0-0.2,0-0.2-0.1
			c-0.1,0-0.2,0-0.3-0.1c-0.3,0-0.7,0-0.9,0.3c0,0.1,0,0.1,0,0.1c-0.1,0-0.1,0.1-0.1,0.2c0,0.1,0.1,0.1,0,0.2
			c0.1,0.1,0.1,0.3,0.3,0.4c0,0.1,0,0,0,0.1c0.1,0,0.1,0,0.2,0c0.2,0.3,0.7-0.1,1,0.1C191.9,8.6,192,8.5,192.1,8.5"/>
		<path class="st5" d="M156.3,11.1c0.3-0.4,1.4-1.1,1.5-1.1l0.2-0.2c0.1,0,0.4-0.1,0.5-0.2c0.3-0.2,0.7-0.4,1.1-0.4
			c0.2-0.1,0.4-0.2,0.6-0.2c0.3-0.2,0.6-0.1,0.9,0c-0.8,0.7-1.9,1.2-2.8,1.7c-0.1,0.1-1.2,0.5-1.6,0.6
			C156.3,11.4,156.1,11.3,156.3,11.1 M165.7,8.7c0.1,0.1,0.6-0.3,0.7-0.3c0.2-0.4,0.3-0.2,0.5-1c0-0.1-0.1-0.2,0-0.4
			c-0.1-0.1-0.1-0.2-0.3-0.2c0-0.2-0.3,0-0.5-0.1c-0.1,0.1-0.3,0.1-0.3,0.1c-0.2,0.1-0.3,0.2-0.5,0.3c0,0,0,0.1-0.1,0.1
			c0,0-0.1,0-0.1,0c0,0,0,0.1,0,0.1c-0.1,0.1-0.3,0.3-0.4,0.4c-0.1,0.1-0.1,0.1-0.1,0.1c-0.1,0.1-0.1,0.1-0.1,0.2
			c-0.1,0.1-0.1,0.2-0.2,0.3c-0.1,0.1-0.2,0.3-0.2,0.4c0,0.1,0,0.1-0.1,0.2c0,0.1-0.1,0.1-0.2,0.2c0,0,0,0.1,0,0.1
			c0,0-0.1,0.1-0.1,0.1c-0.1,0.3-0.2,0.6-0.4,0.9c0.1,0,0,0.1,0,0.2c0,0.1,0,0.2-0.1,0.2c0.1,0.1-0.1,0.2,0,0.3c0,0,0,0,0,0
			c-0.2,0.2-0.4,0.4-0.5,0.6c-0.7,0.5-1.4,1.1-2.2,1.6c-0.4,0.2-0.8,0.4-1.1,0.6c-0.2,0.1-0.5,0.2-0.7,0.3l0,0h0
			c-0.1,0-0.1,0-0.1,0.1c-0.1,0-0.1,0-0.2,0.1c-0.1,0-0.1,0-0.2,0c-0.8,0.2-2.1,0.7-3.1,0.6c-0.1-0.1-0.3-0.1-0.4-0.2c0,0,0,0,0-0.1
			c-0.1,0-0.2-0.2-0.3-0.4c-0.1-0.4,0.4-1.1,0.5-1.2c0.3,0,0.5-0.2,0.8-0.2c0.3-0.1,0.6-0.2,0.9-0.3c0,0,0.1-0.1,0.1,0
			c0.5-0.2,1-0.4,1.4-0.5c0,0,1.3-0.6,1.5-0.7c0.6-0.2,1.1-0.6,1.6-0.8c0,0,0.1-0.1,0.1,0c-0.2,0.2,0.2,0,0.5-0.3
			c0.2-0.2,0.4-0.4,0.4-0.6c0-0.1-0.1-0.2,0-0.3c-0.1,0-0.1-0.2-0.1-0.3c-0.3-0.2-0.5-0.5-0.8-0.6c-0.1,0-0.3-0.1-0.5-0.1
			c-0.1,0-0.2,0.1-0.3,0.1c-1.3,0-2.1,0.4-3.1,0.9c0,0.1,0,0.1-0.1,0.1c-0.2,0-0.5,0.2-0.7,0.4c-0.5,0.3-0.9,0.6-1.3,0.9
			c-0.5,0.5-1.1,1-1.5,1.6c-0.1,0.1-0.2,0.1-0.3,0.2c0.1,0,0.1,0,0.1,0.1c-0.2,0-0.7,0.2-1,0.2c-0.1,0.2-0.5,0.1-0.6,0.2
			c-0.2,0-1.7,0.4-1.7,0.4c-0.1,0-2.7,0.6-2.7,0.6c-0.1,0.1-1.6,0.3-1.6,0.3c-0.4,0-1,0.3-1,0.2c-0.1,0-1.7,0.2-2.3,0.4
			c-0.1-0.1-0.2,0-0.3,0c-0.1-0.1-0.8,0-0.8,0.1c-0.1-0.1-0.1,0.1-0.2,0c0,0,0.1,0,0-0.1c-0.1,0-0.2,0-0.2,0.1c0,0,0,0,0-0.1
			c-1.5,0.1-3.3,0.2-4.3-0.6c0,0,0,0-0.1,0c0,0-0.1-0.1-0.1-0.1c-0.2,0.3,0.1,0.4,0.1,0.6c-0.1,0-0.1,0-0.1,0c0,0.2,0.2,0.2,0.1,0.3
			c0.8,0.5,1.8,0.8,2.9,0.8c0,0,0,0.1,0,0.1c0.3,0,0.9-0.1,0.8,0c0.2,0.1,0.6,0,1-0.1c0,0.1,0.5-0.1,0.7-0.1c0,0-0.1,0.1,0,0.1
			c0.2-0.1,0.8-0.1,0.8-0.1c0.1,0,0.8,0,0.6-0.1c0.1,0,0.2,0,0.3-0.1c-0.1,0,0.7-0.2,0.6-0.1c0.1,0,0.2,0,0.2-0.1
			c0,0,1.3-0.2,1.3-0.1c-0.1-0.1,0.3-0.1,0.2-0.1c0.1,0,0.9-0.1,0.9-0.2c0.1,0,0.9-0.1,1-0.1c0,0,0.8-0.3,0.8-0.3
			c0.4-0.1,1.2-0.3,1.3-0.3l0.5-0.1c-0.1,0,1.1-0.4,1.1-0.3c0.1,0,0.2,0,0.2-0.1c0,0,0.8-0.3,0.8-0.2c0.1,0,0.1-0.1,0.2-0.1
			c0,0.3,0,0.6,0.1,0.8c0,0-0.1,0,0,0.1c0.2,0.4,0.5,0.9,0.8,1.2c0.7,0.4,1.8,0.3,2.6,0.2c0.7-0.2,1.4-0.4,2.1-0.6c0,0,0,0,0,0h0
			c0.3-0.1,0.6-0.3,0.9-0.4c0.4-0.3,0.8-0.5,1.3-0.7c0.4-0.4,1.3-1,1.7-1.4c0.1-0.1,0.2-0.2,0.3-0.2l0,0.1c0,0.2,0.1,0.5,0.1,0.6
			c0,0.1,0,0.2,0.1,0.2c0,0,0,0.1,0,0.1c0.1,0.4,0.3,0.8,0.4,1.2c0,0,0,0.1,0.1,0.1c0,0.1,0,0.1,0,0.1c0.1,0.1,0.1,0.2,0.1,0.3
			c0,0.1,0,0.1,0,0.2c0.1,0.2,0.2,0.3,0.2,0.5c0.1,0.2,0.1,0.5,0.2,0.8c0,0.1,0,0.1,0,0.2c0,0.1-0.1,0.3-0.1,0.4c0,0,0,0.1,0,0.1
			c0,0.1-0.1,0.3-0.2,0.3c0,0,0,0.1,0,0.1c-0.1,0.2-0.4,0.5-0.5,0.6c-0.1,0.1-0.3,0.2-0.4,0.4c-0.3,0.2-0.5,0.3-0.8,0.5
			c-0.1,0-0.3,0.1-0.4,0.2c-0.1,0-0.3,0-0.4,0c-0.1,0-0.1,0-0.1,0c-0.1,0-0.3-0.1-0.4,0.1c-0.1-0.1-0.2,0-0.3-0.1c0,0,0,0,0-0.1
			c-0.1,0-0.1,0-0.2,0c-0.1,0.2,0.1,0.1,0.1,0.3c0.1,0,0.1,0,0.1,0.1c-0.1,0.1,0.2,0.1,0.1,0.2c0.2,0,0.2,0,0.4,0
			c0,0.1,0,0.1,0.1,0.1c0.1,0,0.2,0,0.4,0c-0.1,0.1,0,0,0.1,0.1c-0.1,0-0.2,0-0.3,0.1c0,0.1,0.3,0.1,0.5,0.1c0,0,0.1,0,0.2,0
			c0.1,0,0.1,0.1,0.2,0c0.2,0,0.3-0.1,0.5-0.1c0,0.1-0.1,0-0.1,0.1c0.1,0,0.1,0,0.2,0c0-0.1,0.2-0.1,0.2-0.1c0.1,0,0.2,0,0.4,0
			c0.2,0,0.4-0.2,0.5-0.3c0.1-0.1,0.2-0.1,0.2-0.2c0,0,0.1-0.1,0.1-0.1c0.3-0.2,0.5-0.4,0.8-0.7c0-0.2,0.1-0.3,0.2-0.4
			c0,0,0-0.1,0-0.1c0.1-0.1,0.1-0.1,0.1-0.2c0,0,0.1-0.1,0.1-0.1c0,0,0,0,0-0.1c0.1-0.2,0.2-0.6,0.2-0.8c0-0.3-0.1-0.6-0.1-0.8
			c0,0,0,0,0-0.1c0,0-0.1-0.1-0.1-0.1c0-0.2-0.1-0.4-0.2-0.5c-0.1-0.1-0.1-0.2-0.1-0.4c0-0.1,0-0.2-0.1-0.3c0-0.1-0.1-0.1-0.1-0.2
			c0,0,0-0.1,0-0.1c-0.1-0.1-0.2-0.3-0.2-0.4c0-0.1-0.1-0.2-0.1-0.3c-0.1-0.3-0.2-0.6-0.2-0.8c-0.1-0.2-0.1-0.4-0.2-0.7
			c0-0.2,0-0.5,0-0.7c0-0.3,0-0.6,0.1-0.8c0.2-0.6,0.5-1.1,0.7-1.6c0-0.1,0.1-0.1,0.1-0.2c0-0.1,0.1-0.2,0.1-0.3
			C165.8,8.5,165.5,8.8,165.7,8.7"/>
		<path class="st5" d="M215.8,15.8C215.8,15.8,215.8,15.8,215.8,15.8C215.7,15.9,215.7,15.8,215.8,15.8 M216,15.8
			C216,15.8,216,15.8,216,15.8C216,15.8,216,15.8,216,15.8C216,15.8,216,15.8,216,15.8C216,15.8,216,15.8,216,15.8 M215.5,15.9
			c0-0.1,0.1-0.1,0.2-0.1C215.7,15.9,215.6,15.9,215.5,15.9 M215.5,16C215.4,16,215.5,15.9,215.5,16C215.5,15.9,215.5,15.9,215.5,16
			C215.5,16,215.5,15.9,215.5,16 M215.4,16.1C215.4,16.1,215.4,16.1,215.4,16.1C215.4,16,215.4,16,215.4,16.1
			C215.5,16,215.4,16.1,215.4,16.1 M215.2,15.9C215.2,15.9,215.2,15.9,215.2,15.9c0-0.1-0.1,0-0.1,0
			C215.1,15.8,215.2,15.8,215.2,15.9C215.2,15.8,215.2,15.8,215.2,15.9 M215,16.1C215,16.1,215,16.1,215,16.1
			C215,16.1,215.1,16.1,215,16.1C215.1,16.1,215,16.1,215,16.1 M215,15.9C214.9,15.9,214.9,15.9,215,15.9
			C214.9,15.9,215,15.9,215,15.9C215,15.9,215,15.9,215,15.9 M214.8,16.3c-0.1-0.1-0.1,0-0.2,0c0-0.1,0.2-0.1,0.3-0.2
			C214.8,16.2,214.8,16.2,214.8,16.3C214.8,16.2,214.7,16.2,214.8,16.3 M214.5,16c0.1,0,0.1,0,0.1,0C214.6,16.1,214.5,16.1,214.5,16
			 M214.2,16.2c0-0.1,0.2-0.1,0.2,0C214.3,16.2,214.3,16.2,214.2,16.2 M214,16.2c0,0,0.1-0.1,0.2-0.1
			C214.1,16.2,214.1,16.2,214,16.2 M213.9,16.3C213.9,16.3,214,16.3,213.9,16.3C214,16.3,213.9,16.3,213.9,16.3 M213.7,16.3
			C213.6,16.2,213.7,16.2,213.7,16.3C213.8,16.2,213.7,16.3,213.7,16.3 M213.5,16.5C213.5,16.4,213.5,16.4,213.5,16.5
			C213.5,16.5,213.5,16.5,213.5,16.5 M213.4,16.5C213.4,16.4,213.4,16.4,213.4,16.5C213.5,16.5,213.4,16.5,213.4,16.5 M213,16.4
			c0.1,0,0.1,0.1,0.1,0C213.1,16.5,213,16.5,213,16.4 M211.8,16.7c0-0.1,0.1-0.1,0.2-0.1c0,0,0,0,0,0c0,0,0.1,0,0.1,0
			C212,16.5,212,16.6,211.8,16.7 M211.7,16.8C211.8,16.8,211.8,16.7,211.7,16.8C211.8,16.8,211.8,16.8,211.7,16.8 M211.7,16.8
			C211.7,16.7,211.7,16.7,211.7,16.8C211.7,16.7,211.7,16.8,211.7,16.8C211.7,16.8,211.7,16.8,211.7,16.8 M202.6,8.5
			c-0.1-1.1,0-1.9-0.1-2.9c0,0,0,0,0.1,0c-0.1-0.7,0.1-1.2,0.1-1.9c0.2-0.2-0.1-0.7,0.2-0.8c0-0.1,0.1-0.4,0-0.4
			c0.1-0.3,0.1-0.6,0.3-0.8c0,0,0-0.1,0-0.1c0.1-0.2,0.4-0.4,0.7-0.5c0.1,0-0.1,0.3,0,0.2c0.1,0.1,0.1,0.3,0.3,0.4l0,0.2
			c0.1,0.1,0,0.5,0.1,0.5c0,0,0,0.3,0,0.3c0,0.6,0.1,0.4,0,1c0,0.1,0.1,0.1,0,0.3c0,0,0,0.2-0.1,0.2c0,0,0,0.1,0,0.1
			c0,0.1,0,0.2,0,0.3c0,0,0,0,0.1,0c0,0,0,0,0,0.1c0,0-0.1,0-0.1,0.1c0,0,0,0,0,0c0,0.1-0.1,0.1,0,0.2c0,0,0,0,0,0.1
			c0,0-0.1,0-0.1,0.1c0,0,0,0.2-0.1,0.2c0.1,0.1,0,0.2,0,0.2c-0.1,0-0.1,0-0.1,0.1c0,0.1-0.1,0.3-0.2,0.3c0.1,0,0,0.2,0.1,0.2
			c0,0-0.1,0.1-0.1,0c-0.1,0.2-0.2,0.4-0.3,0.5c0.1,0,0,0,0.1,0.1c-0.1,0-0.1,0.1-0.1,0.1c0,0.1-0.1,0.2-0.1,0.3
			c0,0-0.1,0.3-0.1,0.3c0,0.2-0.2,0.3-0.2,0.5c-0.1,0-0.1,0.1-0.1,0.2C202.7,8.2,202.8,8.4,202.6,8.5 M196.9,10.7
			c-0.2,0.4-0.2,0.8-0.5,1l0,0.2c-0.1,0.3-0.3,0.5-0.5,0.7l0.1,0.1c-0.1,0.2-0.3,0.4-0.4,0.5c-0.3,0.3-0.7,0.7-1.1,1
			c-0.5,0-0.3,0.2-1,0.2c-0.4-0.2-0.4-0.8-0.2-1c0.3-0.8,0.5-1.1,0.7-1.4c0.4-0.6,1.4-1.2,1.7-1.5c0.4-0.4,1-0.6,1.4-0.7L196.9,10.7
			z M217.9,14.9c0,0,0,0.1,0,0.1c-0.1,0-0.1,0-0.1,0C217.8,14.9,217.9,14.9,217.9,14.9c-0.1,0-0.2,0-0.2,0
			C217.8,14.8,217.8,14.8,217.9,14.9c0-0.1,0-0.1,0-0.2c-0.1,0-0.2,0.1-0.3,0c0,0,0-0.1,0.1-0.1c-0.1,0-0.3,0.1-0.4,0.1
			c-0.1-0.1-0.2,0-0.3,0.1c0.1,0,0.1,0.1,0.1,0c0,0,0.1-0.1,0.1-0.1c0,0.1,0.1,0,0.1,0.1c-0.1,0-0.2,0.1-0.4,0.1c0,0,0,0,0-0.1
			c-0.1,0-0.1,0-0.3,0c0,0,0.1,0,0.1,0c-0.1,0-0.1,0-0.1,0.1c-0.2,0-0.3,0.1-0.4,0.2c0,0,0,0,0-0.1c-0.1,0-0.2,0.1-0.3,0.1
			c0,0-0.1,0-0.1-0.1c-0.6,0.2-1.3,0.2-1.8,0.4c-0.2,0-0.4,0-0.6,0.1c-0.4,0-0.8,0.1-1.1,0.1c-0.1,0-0.1,0-0.2,0
			c-0.2,0.1-0.4,0-0.6,0.1c-0.4,0-0.8,0-1.2,0c-0.3,0-0.5,0-0.7-0.1c-0.2,0-0.4,0-0.6,0c-0.1,0-0.1-0.1-0.2-0.1c0,0-0.1,0-0.1,0
			c-0.2-0.1-0.5-0.1-0.7-0.1c-0.2-0.1-0.4-0.1-0.6-0.2c-0.3,0-0.5-0.1-0.7-0.3c-0.5-0.2-0.9-0.4-1.3-0.8c-0.1,0-0.1,0-0.1,0
			c0-0.1-0.1-0.1-0.2-0.1c0.1-0.1,0-0.1,0-0.1c-0.2-0.1-0.3-0.3-0.4-0.4c-0.2-0.3-0.5-0.6-0.7-1c-0.1,0-0.1,0-0.1,0
			c-0.2-0.4-0.5-0.7-0.6-1.2c0,0,0,0-0.1,0c0-0.2-0.2-0.3-0.2-0.5c0,0-0.1,0-0.1,0c0-0.2-0.1-0.2-0.1-0.5c0.1,0,0-0.1,0.1-0.2
			c0,0,0,0.1,0.1,0c0-0.1,0-0.1,0.1-0.2c0-0.1,0.2-0.2,0.1-0.3c0.2-0.1,0.1-0.3,0.3-0.3c0,0,0,0,0-0.1c0,0,0,0,0.1,0
			c0-0.2,0.3-0.3,0.2-0.4c0.2-0.1,0.1-0.4,0.3-0.4c0-0.1,0-0.2,0.1-0.3c0-0.1,0-0.1,0-0.1c0,0,0-0.1,0.1-0.1c0-0.2,0.3-0.6,0.3-0.8
			c0-0.1,0.2-0.4,0.2-0.4c0.2-0.3,0.1-0.5,0.2-0.6c0,0,0.1-0.1,0.1-0.1c0-0.1,0.1-0.1,0.1-0.2l0.1-0.1l0-0.2l0.1-0.5c0,0,0,0,0,0
			c0-0.1,0-0.1,0.1-0.2l0,0l0,0l0.1-0.4c0-0.4,0.1-0.4,0.1-0.9c0-0.1,0-0.3,0-0.4c0-0.1-0.1-0.5,0-0.7c0-0.2-0.1-0.3-0.1-0.3
			c0-0.3,0-0.1-0.2-0.4c0-0.1,0-0.1,0-0.2c0-0.1-0.1-0.1-0.1-0.1c0-0.1,0-0.1-0.1-0.2c-0.1-0.2-0.1-0.2-0.2-0.3c0,0-0.2-0.2-0.2-0.3
			c-0.2-0.1-0.2-0.1-0.4-0.2c0,0,0,0,0-0.1c-0.3-0.1-0.5-0.2-0.8-0.1c0,0.1,0,0.1-0.1,0.1c0,0,0-0.1-0.1,0c-0.2,0-0.3,0.2-0.4,0.2
			c-0.3,0.3-0.4,0.7-0.6,1.1c0,0,0,0.1,0,0.1c-0.1,0.1-0.1,0.4-0.2,0.5c0,0,0,0,0,0.1c-0.1,0.2-0.1,0.5-0.2,0.7
			c0,0.3-0.1,0.6-0.1,0.8c0,0.3-0.1,0.5-0.1,0.7c0,0.2,0,0.2,0,0.4c0.1,0.1,0,0.2,0,0.2c0,0.5,0,0.9,0,1.4c0,0,0,0,0,0
			c0,0.3,0,0.6,0,0.9c0.1,0.1,0,0.3,0,0.4c0,0.2,0.1,0.3,0.1,0.4c0,0,0,0,0,0.1c0,0.5,0.1,1,0.2,1.5c-0.2,0.2-0.2,0.5-0.4,0.6
			c-0.1,0.2-0.2,0.3-0.3,0.5c-0.2,0.1-0.2,0.4-0.4,0.4v0c0,0,0,0,0,0c0,0,0,0,0,0v0c-0.2,0.2-0.8,0.9-1,0.8c-0.1,0-0.3,0.2-0.6-0.2
			c0,0-0.4-0.7-0.4-0.9c0-0.4-0.1-0.8-0.1-1.2c0-0.1,0-0.2-0.1-0.3c0.1-0.3,0.1-0.3,0.1-0.8c0,0,0-0.1,0-0.2l0-0.2c0,0,0-0.4,0-0.4
			l-0.2,0c0,0-0.2,0-0.4,0c-0.1,0-0.1,0-0.2,0l-0.3,0c0,0-0.1,0.1-0.3,0.1L197,8.6l-0.4,0.1l-0.7,0.3l-1.1,0.7l-0.6,0.4
			c-0.2,0.2-0.5,0.4-0.5,0.4l-0.4,0.4c0.1-0.1-0.4,0.5-0.7,0.8c-0.1,0.3-0.9,1.7-0.7,1.8c-0.2,0.9-0.3,1,0.6,1.8
			c0.6,0.6,1.6,0.1,1.9,0c0.1-0.1,0.2-0.2,0.3-0.2c0.8-0.3,1-0.6,1.7-1.4l0,0.1l0.2-0.4c0.4-0.4,0.3-0.7,0.8-1.2c0,0,0,0,0-0.1
			c0,0,0,0,0,0c0.1,0.2,0.2,0.5,0.2,0.7c0.1,0.3,0.7,1,0.9,1.1c0.4,0.3,0.9,0.1,1.1,0c0.4-0.1,1-1,1.1-1l0-0.1c0,0,0.1-0.1,0.1-0.2
			c0.3-0.2,0.5-0.7,0.6-0.7c0.1-0.1,0.1-0.2,0.3-0.2c0-0.1,0.1-0.2,0.2-0.2c0,0,0.1,0.1,0.1,0c0.1,0.2,0.2,0.4,0.3,0.7
			c0.4,0.6,0.7,1.2,1.1,1.7c0.1,0.3,0.3,0.3,0.4,0.6c0.1,0,0.1,0.1,0.2,0.2c0,0.2,0.3,0.2,0.4,0.4c0,0,0,0,0,0.1c0.1,0,0,0.1,0.1,0
			c0,0,0,0,0,0.1c0.1,0,0.1,0,0.2,0.1c0.4,0.4,0.9,0.7,1.5,0.9c0,0,0,0,0,0c0.3,0.1,0.6,0.3,0.9,0.4c0-0.1-0.1-0.1-0.1-0.1
			c0.1,0,0.2,0,0.2,0.1c0-0.1,0,0,0,0c0.4,0,0.8,0.2,1.2,0.2c0,0.1,0.2,0,0.1,0.1c0.1-0.1,0.3,0.1,0.4-0.1c0.1,0.1,0.1,0,0.3,0
			c0,0.1,0.1,0.1,0.2,0.1c0,0,0.1,0,0.1,0c0.2,0.1,0.4,0,0.5,0.1c-0.1,0-0.2,0-0.3,0.1c0.1,0,0.2,0,0.3,0c0,0-0.1-0.1,0-0.1
			c0,0.1,0,0,0.1,0c0,0,0.1,0,0.1,0.1c0,0-0.1,0-0.1,0c0.1,0.1,0.3,0,0.5,0c0,0-0.1-0.1,0-0.1c0.1,0,0.3,0,0.4,0
			c0.1,0,0.2,0,0.2,0.1c0.1-0.1,0.3,0,0.5,0c0-0.1,0.1,0,0.1-0.1c0.1,0.1,0.3,0,0.4,0c0.2,0,0.5,0,0.7-0.1c0-0.1,0-0.1,0-0.1
			c-0.1,0,0,0.1-0.1,0c0,0,0,0.1,0,0.1c-0.1,0-0.2,0-0.3,0c0,0,0,0,0-0.1c-0.2,0.1-0.3,0-0.5,0.1c0.1-0.2-0.1,0-0.1-0.1
			c0,0,0.1,0,0.1,0c0-0.1-0.1-0.1-0.1,0c0,0,0.1,0,0,0c-0.1,0-0.1,0-0.1-0.1c0.1,0,0.2,0,0.3-0.1c0-0.1,0.1-0.1,0.1-0.2
			c0,0.1,0.2,0,0.3,0c0,0.1-0.2,0-0.2,0.1c0.1,0,0,0.1,0.1,0.1c0,0,0.1-0.1,0.1,0c0,0-0.1,0-0.1,0.1c0.1,0,0.1-0.1,0.2,0
			c0,0,0-0.1,0.1-0.1c0.1,0,0.3,0,0.4-0.1c0,0.1,0.1,0,0.1,0c-0.1,0.1-0.1,0.1-0.1,0.1c0,0.1,0.1,0,0.1,0c0-0.1,0.1-0.2,0.1-0.2
			c0,0,0,0.1,0,0.1c0,0,0-0.1,0-0.1c0,0.1,0.1,0,0.2,0c0,0,0,0.1,0,0.1c0,0,0,0,0,0c0,0,0,0,0,0c0,0,0,0,0,0c0.1,0-0.1,0,0,0
			c0.1,0.1,0.2,0,0.3-0.1c0,0,0-0.1,0-0.1c0.1,0,0.1,0,0.2,0c0,0-0.1,0-0.1,0.1c0,0,0,0,0,0c0.1-0.1,0.2-0.1,0.3-0.1c0,0,0,0,0,0.1
			c0,0,0.1,0,0.1,0c0,0,0,0,0,0c0-0.1,0,0,0-0.1c0.4,0,0.8-0.1,1.2-0.2c0,0,0-0.1,0-0.1c0,0,0.1,0,0.1-0.1c0,0,0,0.1,0,0.1
			c0,0,0.1,0,0.2,0c0-0.1,0-0.1,0.1-0.1c0,0,0.1,0,0.1-0.1c0,0,0,0,0.1,0c0,0,0,0,0,0c0,0,0.1,0,0.1,0.1c0,0,0,0,0,0c0,0,0,0-0.1,0
			c0,0,0,0,0,0c0.1,0.1,0.1,0.1,0.1,0.2c0,0,0.1-0.1,0.1-0.1c0,0,0,0,0-0.1c0.2-0.1,0.5-0.2,0.7-0.3c0,0,0,0,0,0.1
			c0.1,0,0.2-0.1,0.2-0.1c0.1,0.1,0.2,0,0.2,0c0,0,0-0.1,0.1-0.1c0,0,0,0,0,0c0.1-0.1,0.1,0,0.3,0c0-0.1,0.1-0.1,0-0.1
			c-0.1,0,0,0.1-0.1,0.1c0,0-0.1-0.1-0.2,0c0-0.1,0-0.1-0.1-0.1c0,0,0,0.1-0.1,0.1c0,0,0-0.1,0-0.1c0,0,0,0-0.1,0
			c-0.1,0.1-0.2,0.1-0.3,0.1c0,0,0-0.1,0-0.1c0,0,0,0,0,0c0,0,0,0,0,0c0,0,0,0,0,0c0,0,0,0-0.1,0c0,0,0,0.1-0.1,0.1c0,0,0,0.1,0,0
			c0,0,0,0-0.1-0.1c0,0,0,0,0,0c0,0,0,0,0,0c0,0,0.1,0.1-0.1,0.1c0,0,0-0.1,0-0.1c0,0,0,0,0,0c0,0.1-0.1,0.1-0.1,0.1
			c0,0,0-0.1,0-0.1c0,0,0,0-0.1,0c0,0,0,0,0,0c0,0,0,0-0.1-0.1c0,0.1-0.2,0.1-0.3,0.1c0,0-0.1,0.1-0.1,0.1c0.1,0,0.1,0,0-0.1
			c0.1-0.1,0.3-0.1,0.3-0.1c0.1,0,0,0.1,0.1,0c0.1-0.1,0.2-0.1,0.3-0.1c0-0.1,0.2,0,0.2-0.1c0.1,0,0.1-0.1,0.1,0c0,0-0.1,0.1,0,0.1
			c0,0,0-0.1,0.1-0.1c0,0,0,0.1,0.1,0.1c0-0.1,0-0.1,0.1-0.1c0,0.1,0.1,0,0.1,0c0-0.1,0-0.1,0.1-0.1c0.1,0.1,0,0,0,0.1
			c0.2,0,0.3-0.2,0.4-0.2c0,0,0-0.1,0.1-0.1c0.1,0,0.1,0.1,0.1,0.1c0.1-0.1,0.1,0,0.2-0.1C218,15,218,14.9,217.9,14.9"/>
	</g>
	<g>
		<rect x="123.9" y="1" class="st6" width="0.4" height="39.8"/>
	</g>
</g>
</svg>
